<svg width="96" height="96" viewBox="0 0 96 96" fill="none" xmlns="http://www.w3.org/2000/svg">
  <rect width="96" height="96" rx="28" fill="#F7FAFF"/>
  <rect x="7" y="7" width="82" height="82" rx="24" fill="url(#surface)" stroke="url(#edge)" stroke-width="2"/>
  <path d="M22 61.5C22 43.9 33.5 29.5 49 29.5C64.2 29.5 75 43.6 75 61.5H62.6C62.6 51 57.3 42.7 49 42.7C40.5 42.7 34.5 51.2 34.5 61.5H22Z" fill="url(#arch)"/>
  <path d="M15.5 67.1C20 58.5 29.4 53.4 40.2 53.4C51 53.4 60.5 58.5 65 67.1L53.9 73.4C51.3 68.5 46.2 65.7 40.2 65.7C34.2 65.7 29.1 68.5 26.5 73.4L15.5 67.1Z" fill="url(#wing)"/>
  <circle cx="70" cy="28" r="10" fill="#22D3EE"/>
  <circle cx="70" cy="28" r="4" fill="#F7FAFF"/>
  <path d="M77 35L85 43" stroke="#07104D" stroke-width="5" stroke-linecap="round"/>
  <path d="M27 24.5L32 20L37 24.5" stroke="#A78BFA" stroke-width="4" stroke-linecap="round" stroke-linejoin="round"/>
  <defs>
    <linearGradient id="surface" x1="8" y1="8" x2="88" y2="88" gradientUnits="userSpaceOnUse">
      <stop stop-color="#FFFFFF"/>
      <stop offset="0.48" stop-color="#F2F6FF"/>
      <stop offset="1" stop-color="#EAF7FF"/>
    </linearGradient>
    <linearGradient id="edge" x1="12" y1="10" x2="84" y2="86" gradientUnits="userSpaceOnUse">
      <stop stop-color="#E7DEFF"/>
      <stop offset="0.54" stop-color="#DCE7FF"/>
      <stop offset="1" stop-color="#C7F4FF"/>
    </linearGradient>
    <linearGradient id="arch" x1="22" y1="29.5" x2="75" y2="61.5" gradientUnits="userSpaceOnUse">
      <stop stop-color="#A855F7"/>
      <stop offset="0.48" stop-color="#536DFE"/>
      <stop offset="1" stop-color="#06B6D4"/>
    </linearGradient>
    <linearGradient id="wing" x1="15.5" y1="53.4" x2="65" y2="73.4" gradientUnits="userSpaceOnUse">
      <stop stop-color="#2563EB"/>
      <stop offset="1" stop-color="#8B5CF6"/>
    </linearGradient>
  </defs>
</svg>
