<svg width="64" height="64" viewBox="0 0 64 64" fill="none" xmlns="http://www.w3.org/2000/svg">
  <rect width="64" height="64" rx="18" fill="#F7FBFF"/>
  <rect x="6" y="6" width="52" height="52" rx="14" fill="url(#surface)" stroke="#DCE8FF"/>
  <path d="M17 39.5C17 28.2 24.2 19 34.1 19C43.9 19 51 28 51 39.5H43.8C43.8 32.4 39.9 26.7 34.1 26.7C28.2 26.7 24.1 32.5 24.1 39.5H17Z" fill="url(#markA)"/>
  <path d="M12.8 43.4C15.7 38 21.6 34.8 28.3 34.8C35 34.8 41 38 43.8 43.4L37.4 47.1C35.8 44 32.4 42.1 28.3 42.1C24.2 42.1 20.8 44 19.2 47.1L12.8 43.4Z" fill="url(#markB)"/>
  <circle cx="45.5" cy="20.5" r="5.5" fill="#25D3FF"/>
  <circle cx="45.5" cy="20.5" r="2" fill="#F7FBFF"/>
  <path d="M49.2 24.2L54 29" stroke="#0F2F70" stroke-width="3.2" stroke-linecap="round"/>
  <defs>
    <linearGradient id="surface" x1="8" y1="8" x2="58" y2="58" gradientUnits="userSpaceOnUse">
      <stop stop-color="#FFFFFF"/>
      <stop offset="1" stop-color="#EDF5FF"/>
    </linearGradient>
    <linearGradient id="markA" x1="17" y1="19" x2="51" y2="39.5" gradientUnits="userSpaceOnUse">
      <stop stop-color="#7C3DFF"/>
      <stop offset="0.52" stop-color="#406CFF"/>
      <stop offset="1" stop-color="#17C9F2"/>
    </linearGradient>
    <linearGradient id="markB" x1="12.8" y1="34.8" x2="43.8" y2="47.1" gradientUnits="userSpaceOnUse">
      <stop stop-color="#1D5BFF"/>
      <stop offset="1" stop-color="#8A5CFF"/>
    </linearGradient>
  </defs>
</svg>
