<?xml version="1.0" encoding="utf-8" ?><svg xmlns="http://www.w3.org/2000/svg" xmlns:xlink="http://www.w3.org/1999/xlink" width="400" height="400" viewBox="0 0 400 400"><path d="M34.3254 0L365.173 0C367.86 1.10567 371.067 1.36803 373.817 2.44865C383.829 6.38287 392.138 13.9075 396.485 23.822C397.458 25.9949 398.203 28.2633 398.707 30.5905C399.013 31.9398 399.525 34.6846 400 35.8635L400 364.148C399.053 366.769 398.829 369.674 397.934 372.304C394.467 382.653 386.987 391.175 377.175 395.954C375.444 396.806 374.062 397.44 372.218 398.027C370.4 398.605 366.211 399.249 364.718 400L35.3326 400C33.9841 399.322 28.4282 398.302 26.2088 397.481C15.6095 393.613 7.26629 385.323 2.86662 375.005C1.69692 372.261 1.21822 367.79 0 365.428L0 34.5099C0.951405 32.5565 1.53559 28.3829 2.48136 25.97C6.52508 15.5231 14.4622 7.08695 24.8895 2.87683C27.7472 1.72304 31.7562 1.20328 34.3254 0Z"/><path fill="#FEFEFE" d="M177.687 57.6073C179.327 57.3784 184.618 57.4617 186.339 57.508C204.81 58.1618 222.713 64.0591 237.956 74.5106C253.035 84.7234 271.934 105.741 278.984 122.523C287.902 143.754 289.53 172.221 293.854 194.846C309.869 206.097 322.265 220.006 321.484 240.764C320.476 267.838 309.132 297.046 289.688 316.204C282.089 323.692 266.917 334.749 255.755 334.343C244.329 333.928 232.26 324.732 224.652 316.691C224.495 316.913 224.329 317.128 224.155 317.337C223.291 318.38 219.338 321.735 218.056 322.929C215.74 325.088 212.466 328.844 210.099 330.548C204.51 334.569 192.696 339.695 185.888 340.444C182.643 340.801 176.162 340.517 173.157 339.81C161.288 337.018 148.812 330.018 139.485 322.264C133.974 317.682 128.383 311.396 123.699 305.839C109.948 289.527 93.0294 265.576 94.8715 243.015C95.3127 237.611 97.6889 234.458 99.7057 229.888C101.632 225.444 102.613 220.649 102.585 215.806C102.572 210.522 101.502 206.975 100.733 201.899C100.318 199.162 101.003 195.936 100.43 192.802C98.5481 182.503 95.6886 170.625 94.7048 160.327C93.0785 143.305 99.2167 115.045 106.285 99.9408C108.775 94.5121 112.002 89.4529 115.875 84.9064C131.541 66.4028 154.306 59.5281 177.687 57.6073Z"/><path d="M174.654 92.1129C192.813 92.0642 203.597 97.8009 218.137 108.262C234.525 120.051 237.991 136.808 243.088 155.238C245.477 163.874 249.03 172.117 250.748 180.977C251.183 183.278 251.589 185.71 252.053 188.059C251.488 188.329 250.931 188.615 250.381 188.915C245.625 191.482 239.29 197.825 235.253 201.717C232.396 204.473 228.733 209.827 226.155 213.067C222.635 217.493 215.772 224.995 214.146 230.37C212.912 228.133 210.769 225.433 209.196 223.37C208.512 222.494 207.822 221.623 207.128 220.756C194.181 204.62 178.437 192.316 157.263 189.8C152.364 189.218 146.619 189.831 142.644 193.043C140.201 189.812 137.737 186.483 133.848 185.051C132.825 169.122 128.787 153.041 128.324 136.714C128.113 129.268 128.293 112.505 133.187 105.743C133.84 104.841 138.602 102.388 139.872 101.718C151.758 95.4489 161.315 92.5945 174.654 92.1129Z"/><path d="M131.225 223.116C152.985 222.888 168.298 236.496 179.847 253.649C185.084 261.572 189.481 270.019 192.966 278.854C194.53 282.743 195.836 286.708 197.422 290.621C199.805 296.521 202.764 302.305 204.225 308.523C206.258 317.171 202.988 326.093 195.598 331.087C190.363 334.624 180.977 334.267 175.072 333.018C171.552 332.056 165.241 331.145 162.186 329.898C141.977 321.506 128.94 303.049 116.409 286.238C98.3508 262.011 87.0514 224.954 131.225 223.116Z"/><path d="M183.377 63.1126C217.804 62.4666 246.421 83.2203 265.481 110.584C278.244 128.908 281.344 150.462 284.668 171.984C285.623 178.167 286.275 184.965 287.517 191.04C284.953 189.787 282.312 188.695 279.612 187.771C273.679 160.717 271.147 129.947 256.152 106.13C242.724 84.8022 221.693 73.1345 197.648 67.6317C173.387 63.8663 153.11 68.4384 136.893 87.9458C116.713 112.219 122.153 141.4 126.43 170.096C127.134 174.824 127.552 179.643 128.041 184.426C120.392 184.822 112.226 187.114 105.817 191.325C104.361 179.62 100.524 168.205 100.256 155.91C99.7851 134.365 107.329 101.814 122.387 85.7978C137.762 69.4454 161.868 63.8853 183.377 63.1126Z"/><path d="M284.141 196.192C286.019 196.412 291.249 199.86 292.978 201.036C301.116 206.569 308.052 214.096 311.986 223.242C319.447 240.588 314.185 261.314 307.733 278.141C299.478 298.444 285.429 317.53 264.896 326.573C257.012 330.045 252.402 329.196 244.79 326.12C256.935 321.854 267.721 314.006 276.578 304.784C281.152 300.044 285.263 294.879 288.855 289.358C296.212 277.947 304.796 257.836 307.124 244.521C307.853 240.355 307.879 235.019 307.793 230.796C307.657 224.63 306.948 221.84 304.553 216.314C304.303 222.61 305.11 228.824 304.554 235.451C303.26 250.862 294.238 269.553 286.642 282.963C279.053 296.358 263.001 312.063 248.946 318.277C245.398 319.845 242.153 320.785 238.36 321.716C235.033 318.906 231.715 315.716 228.571 312.689C235.38 309.682 248.325 304.177 253.59 299.286C275.993 278.476 308.326 225.17 284.141 196.192Z"/><path d="M181.712 72.1082C206.575 71.5316 230.967 83.718 246.713 102.768C259.675 118.451 264.588 138.11 268.209 157.701C269.206 163.087 270.174 168.478 271.114 173.874C271.724 177.371 272.47 182.33 273.542 185.629L273.653 185.966C268.244 185.017 262.705 185.096 257.326 186.199C256.953 180.64 254.181 172.71 252.48 167.511C251.377 164.108 250.352 160.68 249.405 157.231C242.744 127.128 232.117 104.457 201.927 92.1665C179.945 83.2179 157.211 86.3978 136.596 97.2361C142.195 89.2393 146.906 83.9391 155.571 79.1104C164.245 74.2765 171.901 72.5722 181.712 72.1082Z"/><path d="M263.403 194.351C272.427 193.482 279.94 197.682 283.501 206.117C292.244 226.824 281.129 251.367 270.4 269.109C264.248 279.284 256.792 289.577 247.562 297.035C243.737 300.126 237.42 302.821 232.973 304.809C234.11 301.08 235.608 295.818 235.516 291.937C244.79 286.111 250.208 280.151 255.801 270.88C261.789 260.464 271.038 237.97 268.365 225.426C266.477 216.56 256.147 213.37 247.99 215.926C235.537 219.828 228.691 234.252 222.81 244.988C221.562 241.898 219.745 239.431 218.317 236.405C219.561 227.977 224.916 223.671 229.997 217.473C232.199 214.787 234.379 211.818 236.598 209.08C243.452 200.618 252.437 195.408 263.403 194.351Z"/><path d="M151.935 195.823C154.815 195.554 158.15 196.002 161.015 196.481C170.806 198.116 178.161 201.382 185.958 207.552C191.118 211.627 195.874 216.188 200.16 221.173C211.443 234.331 220.259 250.348 226.283 266.554C230.995 279.232 232.396 297.344 223.516 308.528L221.333 310.418C221.803 307.036 221.888 303.611 221.587 300.21C220.474 286.403 212.055 272.784 205.903 260.637C200.274 249.524 194.779 237.655 187.701 227.437C184.586 222.916 180.904 218.813 176.746 215.228C172.935 211.993 167.113 208.287 162.591 206.157C155.81 202.962 152.543 202.185 146.678 197.16C148.575 196.487 149.965 196.143 151.935 195.823Z"/><path d="M142.252 201.24C142.61 201.322 147.25 205.505 148.71 206.212C159.91 211.633 172.242 217.006 180.256 226.969C190.378 239.552 195.708 255.549 203.915 269.461C211.835 282.887 223.885 310.664 209.061 323.037C211.904 312.642 209.817 304.46 205.682 294.926C202.983 288.717 200.214 282.539 197.378 276.391C187.16 254.419 173.948 228.931 149.718 220.421C134.729 215.156 121.919 216.699 107.842 223.255C108.463 220.257 108.511 217.546 108.523 214.514C116.688 212.02 124.04 209.398 131.852 205.968C135.326 204.442 138.923 203.09 142.252 201.24Z"/><path d="M252.696 220.83C260.255 219.768 263.057 224.654 262.71 231.387C261.931 246.493 256.208 261.868 247.039 273.893C243.891 278.021 240.391 281.087 236.673 284.645C237.849 278.673 234.557 268.599 231.807 263.327C234.41 260.715 235.408 255.754 237.472 252.139C239.519 248.552 241.554 244.971 243.643 241.394C246.197 237.141 249.423 232.736 253.367 229.653C254.808 228.528 257.639 227.222 258.776 225.941L258.542 225.555C257.052 225.03 254.281 225.578 252.912 226.181C241.212 231.334 233.878 247.21 229.194 258.18C228.25 255.818 227.006 253.223 225.965 250.866C229.773 244.271 233.601 237.205 237.914 230.966C241.988 225.071 245.594 222.042 252.696 220.83Z"/><path d="M126.901 190.352C132.688 189.29 135.132 193.62 139.072 196.454L139.288 196.608C136.003 197.861 131.635 199.941 128.294 201.381C124.265 203.095 120.189 204.696 116.071 206.183C113.526 207.033 110.604 207.94 108.163 208.969C107.506 204.986 106.481 203.531 106.516 199.071C109.978 193.635 120.719 190.892 126.901 190.352Z"/></svg>